<svg xmlns="http://www.w3.org/2000/svg" version="1.1" xmlns:xlink="http://www.w3.org/1999/xlink" width="1000" height="1000"><g clip-path="url(#SvgjsClipPath1003)"><rect width="1000" height="1000" fill="#ffffff"></rect><g transform="matrix(3.5,0,0,3.5,150,150)"><svg xmlns="http://www.w3.org/2000/svg" version="1.1" xmlns:xlink="http://www.w3.org/1999/xlink" width="200" height="200"><svg xmlns="http://www.w3.org/2000/svg" version="1.1" xmlns:xlink="http://www.w3.org/1999/xlink" viewBox="0 0 200 200"><rect width="200" height="200" fill="url('#gradient')"></rect><defs><linearGradient id="gradient" gradientTransform="rotate(226 0.5 0.5)"><stop offset="0%" stop-color="#83fa39"></stop><stop offset="100%" stop-color="#093a18"></stop></linearGradient><clipPath id="SvgjsClipPath1003"><rect width="1000" height="1000" x="0" y="0" rx="350" ry="350"></rect></clipPath></defs><g><g fill="#ffffff" transform="matrix(5.7587326732673265,0,0,5.7587326732673265,22.82966197917486,140.94884548564949)" stroke="#000000" stroke-width="0.45"><path d="M6.69-4.82L4.50-4.82L4.50 0L1.07 0L1.07-14.22L6.75-14.22Q8.38-14.22 9.63-13.62Q10.89-13.02 11.58-11.91Q12.27-10.80 12.27-9.39L12.27-9.39Q12.27-7.31 10.78-6.07Q9.29-4.82 6.69-4.82L6.69-4.82ZM4.50-11.57L4.50-7.47L6.75-7.47Q7.74-7.47 8.27-7.97Q8.79-8.47 8.79-9.38L8.79-9.38Q8.79-10.37 8.25-10.97Q7.71-11.56 6.79-11.57L6.79-11.57L4.50-11.57ZM25.73-7.60L25.73-1.76Q24.94-0.88 23.42-0.34Q21.89 0.20 20.08 0.20L20.08 0.20Q17.29 0.20 15.62-1.51Q13.95-3.22 13.83-6.27L13.83-6.27L13.82-7.50Q13.82-9.60 14.56-11.17Q15.30-12.73 16.68-13.58Q18.07-14.42 19.88-14.42L19.88-14.42Q22.54-14.42 24.01-13.21Q25.48-11.99 25.72-9.58L25.72-9.58L22.42-9.58Q22.25-10.77 21.66-11.28Q21.07-11.79 20-11.79L20-11.79Q18.71-11.79 18.01-10.69Q17.30-9.60 17.29-7.57L17.29-7.57L17.29-6.71Q17.29-4.58 18.02-3.51Q18.75-2.44 20.31-2.44L20.31-2.44Q21.65-2.44 22.30-3.04L22.30-3.04L22.30-5.24L19.92-5.24L19.92-7.60L25.73-7.60Z"></path></g></g></svg></svg></g></g></svg>